# xmcd CD database file
#
# Track frame offsets:
#	150
#	22243
#	39147
#	55010
#	67799
#	96373
#	110596
#	120830
#	135516
#	150333
#	163402
#
# Disc length: 2353 seconds
#
# Revision: 0
# Processed by: cddbd v1.5.1PL2 Copyright (c) Steve Scherf et al.
# Submitted via: CDex 1.60beta1
#
DISCID=83092f0b
DTITLE=Billy Joe Shaver - Highway Of Life
DYEAR=1996
DGENRE=Country
TTITLE0=Yesterday Tomorrow Was Today
TTITLE1=West Texas Waltz
TTITLE2=Highway Of Life 
TTITLE3=Tomorrow's Goodbye
TTITLE4=Blue Blue Blues
TTITLE5=Comin' On Strong
TTITLE6=You're As Young As The Woman You Feel
TTITLE7=Goodbye Yesterday
TTITLE8=Moonshine And Indian Blood
TTITLE9=Look For Me When You See Me Comin'
TTITLE10=The First And Last Time
EXTD=YEAR: 1996
EXTT0=
EXTT1=
EXTT2=
EXTT3=
EXTT4=
EXTT5=
EXTT6=
EXTT7=
EXTT8=
EXTT9=
EXTT10=
PLAYORDER=
